<?xml version="1.0" encoding="UTF-8"?>
<!DOCTYPE svg PUBLIC "-//W3C//DTD SVG 1.1//EN" "http://www.w3.org/Graphics/SVG/1.1/DTD/svg11.dtd">
<!-- Creator: CorelDRAW 2019 (64 Bit) -->
<svg xmlns="http://www.w3.org/2000/svg" xml:space="preserve" width="120.82mm" height="39.43mm" version="1.1" style="shape-rendering:geometricPrecision; text-rendering:geometricPrecision; image-rendering:optimizeQuality; fill-rule:evenodd; clip-rule:evenodd"
viewBox="0 0 12082 3943"
 xmlns:xlink="http://www.w3.org/1999/xlink">
 <defs>
  <style type="text/css">
   <![CDATA[
    .fil1 {fill:#606062;fill-rule:nonzero}
    .fil0 {fill:#0B5B99;fill-rule:nonzero}
   ]]>
  </style>
 </defs>
 <g id="Camada_x0020_1">
  <metadata id="CorelCorpID_0Corel-Layer"/>
  <g id="_1851096321584">
   <path class="fil0" d="M111 1851.26l1851 -1851.03c660.36,659.91 1320.51,1320.06 1980.42,1980.42l-222.64 222.58 -222.15 -222.26 0.28 -0.28 -1111.43 -1111.44 -811.99 812.03 -214.4 -214.4 803.46 -820.54 -201.55 -201.55 -983.42 983.42 612.21 615.26 782.32 -782.33 218.51 218.55 -772.35 789.45 188.81 192.24 782.47 -782.43 726.79 726.76 -30.55 30.54c-328.14,327.76 -656.07,655.83 -983.94,983.81l-522.56 522.7c-659.87,-660.34 -1319.98,-1320.44 -1980.32,-1980.31l111.03 -111.19zm642.06 -197.53l-308.61 308.59 1535.93 1535.93 1092.51 -1092.54 -282.27 -282.26 -782.35 782.34c-417.87,-417.87 -836.8,-834.73 -1255.21,-1252.06z"/>
   <path class="fil1" d="M6610.11 3446.56l37.72 -120.76c119.74,36.23 219.37,54.32 298.84,54.32 25.16,0 45.79,-0.48 61.9,-1.49 16.09,-1.02 35.46,-4.78 58.08,-11.31 22.65,-6.54 40.77,-15.85 54.35,-27.94 13.58,-12.06 25.4,-29.66 35.49,-52.82 10.05,-23.13 15.07,-50.83 15.07,-83 0,-25.16 -5.28,-48.05 -15.85,-68.68 -10.57,-20.62 -21.64,-36.98 -33.19,-49.06 -11.58,-12.06 -30.71,-24.66 -57.36,-37.73 -26.65,-13.07 -47.04,-22.38 -61.12,-27.93 -14.09,-5.52 -37.73,-13.82 -70.95,-24.89 -46.29,-16.09 -84.01,-30.45 -113.2,-43.01 -29.16,-12.6 -61.12,-30.68 -95.83,-54.35 -34.71,-23.64 -60.62,-52.56 -77.72,-86.79 -17.1,-34.2 -25.67,-73.96 -25.67,-119.23 0,-191.19 117.24,-286.75 351.67,-286.75 114.7,0 211.3,28.68 289.77,86.01l-70.91 110.19c-71.45,-44.26 -144.4,-66.41 -218.86,-66.41 -144.9,0 -217.33,52.32 -217.33,156.96 0,21.13 4.53,40.26 13.58,57.36 9.04,17.1 19.37,31.19 30.95,42.26 11.55,11.08 28.41,22.15 50.52,33.19 22.18,11.07 41.04,19.64 56.62,25.67 15.58,6.06 37.49,13.58 65.66,22.65 33.22,12.06 58.11,20.86 74.7,26.41 16.63,5.52 39.01,14.6 67.16,27.16 28.17,12.6 49.57,23.91 64.16,33.97 14.6,10.05 31.7,23.63 51.31,40.74 19.63,17.13 33.96,34.71 43,52.82 9.08,18.12 17.13,39.99 24.18,65.66 7.04,25.67 10.56,53.57 10.56,83.78 0,47.27 -5.04,89.02 -15.1,125.26 -10.06,36.23 -25.16,65.15 -45.27,86.79 -20.12,21.63 -40.5,39.24 -61.13,52.82 -20.62,13.58 -46.79,23.13 -78.49,28.68 -31.7,5.53 -58.38,9.05 -79.99,10.57 -21.63,1.49 -48.55,2.27 -80.76,2.27 -101.62,0 -213.81,-21.13 -336.56,-63.39zm1095.65 60.34c-88.55,0 -165.02,-24.14 -229.42,-72.43 -64.38,-48.29 -96.58,-112.19 -96.58,-191.7l0 -270.16c0,-79.47 32.2,-143.13 96.58,-190.92 64.4,-47.78 140.87,-71.68 229.42,-71.68 90.55,0 168.29,23.63 233.18,70.94 64.91,47.27 97.35,111.17 97.35,191.66l0 270.16c0,79.51 -32.44,143.41 -97.35,191.7 -64.89,48.29 -142.63,72.43 -233.18,72.43zm0 -122.24c56.35,0 103.89,-12.84 142.63,-38.47 38.74,-25.67 58.11,-60.14 58.11,-103.42l0 -270.16c0,-43.24 -19.37,-77.47 -58.11,-102.63 -38.74,-25.13 -86.28,-37.73 -142.63,-37.73 -54.35,0 -100.37,12.6 -138.1,37.73 -37.72,25.16 -56.58,59.39 -56.58,102.63l0 270.16c0,43.28 19.1,77.75 57.33,103.42 38.23,25.63 84.01,38.47 137.35,38.47zm452.69 -953.89l131.29 0 0 1055.03 -131.29 0 0 -1055.03zm893.42 946.37l22.62 108.66 -132.81 0 -9.07 -43.78c-89.54,43.28 -175.58,64.88 -258.08,64.88 -91.56,0 -162.26,-26.89 -212.05,-80.73 -49.81,-53.84 -74.73,-127.02 -74.73,-219.6l0 -475.43 129.8 0 0 475.43c0,54.32 13.58,97.59 40.77,129.8 27.16,32.2 65.9,48.29 116.21,48.29 87.54,0 169.56,-21.13 246.02,-63.39l0 -590.13 131.32 0 0 646zm97.98 -522.24l0 -123.76 129.8 0 0 -164.51 131.32 0 0 164.51 220.34 0 0 123.76 -220.34 0 0 481.47c0,36.23 21.13,54.32 63.39,54.32 50.32,0 102.13,-13.08 155.46,-39.22l40.74 102.64c-76.46,35.21 -145.88,52.79 -208.29,52.79 -66.41,0 -113.44,-17.1 -141.11,-51.3 -27.67,-34.2 -41.51,-90.55 -41.51,-169.04l0 -431.66 -129.8 0zm564.37 -123.76l131.32 0 0 754.66 -131.32 0 0 -754.66zm0 -271.69l131.32 0 0 176.6 -131.32 0 0 -176.6zm532.68 1047.45c-88.52,0 -165.01,-24.14 -229.39,-72.43 -64.41,-48.29 -96.61,-112.19 -96.61,-191.7l0 -270.16c0,-79.47 32.2,-143.13 96.61,-190.92 64.38,-47.78 140.87,-71.68 229.39,-71.68 90.58,0 168.3,23.63 233.21,70.94 64.89,47.27 97.36,111.17 97.36,191.66l0 270.16c0,79.51 -32.47,143.41 -97.36,191.7 -64.91,48.29 -142.63,72.43 -233.21,72.43zm0 -122.24c56.35,0 103.89,-12.84 142.63,-38.47 38.74,-25.67 58.11,-60.14 58.11,-103.42l0 -270.16c0,-43.24 -19.37,-77.47 -58.11,-102.63 -38.74,-25.13 -86.28,-37.73 -142.63,-37.73 -54.32,0 -100.37,12.6 -138.09,37.73 -37.73,25.16 -56.59,59.39 -56.59,102.63l0 270.16c0,43.28 19.1,77.75 57.33,103.42 38.26,25.63 84.02,38.47 137.35,38.47zm469.29 -543.34l-22.63 -110.18 132.82 0 9.04 43.78c88.55,-43.28 175.1,-64.91 259.62,-64.91 90.55,0 160.72,27.15 210.53,81.5 49.81,54.32 74.7,127.29 74.7,218.86l0 475.43 -129.76 0 0 -475.43c0,-54.35 -13.34,-97.63 -40.03,-129.83 -26.65,-32.17 -65.15,-48.29 -115.44,-48.29 -88.55,0 -171.07,21.13 -247.53,63.39l0 590.16 -131.32 0 0 -644.48zm766.63 618.82c7.05,-27.16 18.6,-66.92 34.71,-119.24 111.68,30.18 196.21,45.28 253.57,45.28 46.29,0 87.77,-8.3 124.51,-24.92 36.71,-16.6 55.1,-45.01 55.1,-85.27 0,-33.22 -15.61,-58.85 -46.8,-76.97 -31.19,-18.12 -79.99,-36.23 -146.39,-54.35 -38.26,-10.06 -67.15,-18.35 -86.79,-24.89 -19.61,-6.54 -43.01,-16.09 -70.2,-28.68 -27.16,-12.57 -47.51,-25.67 -61.12,-39.25 -13.58,-13.58 -25.4,-31.69 -35.46,-54.32 -10.06,-22.65 -15.1,-48.05 -15.1,-76.22 0,-62.38 23.13,-113.2 69.42,-152.45 46.29,-39.22 123.77,-58.85 232.44,-58.85 95.59,0 182.65,17.6 261.11,52.82l-42.26 113.2c-67.42,-27.15 -140.36,-41.75 -218.85,-43.78l-6.03 0c-109.68,0 -164.51,29.7 -164.51,89.06 0,25.16 15.85,45.78 47.54,61.87 31.7,16.12 70.17,29.7 115.45,40.77 45.3,11.07 90.58,24.38 135.85,39.99 45.28,15.58 83.78,41.25 115.47,76.97 31.67,35.73 47.55,80.76 47.55,135.08 0,40.26 -6.81,74.97 -20.39,104.13 -13.58,29.19 -30.44,51.84 -50.56,67.93 -20.11,16.11 -45.27,28.68 -75.48,37.75 -30.17,9.05 -57.36,14.84 -81.5,17.34 -24.15,2.51 -51.81,3.76 -83,3.76 -80.5,0 -176.6,-15.58 -288.28,-46.76zm0 0c7.05,-27.16 18.6,-66.92 34.71,-119.24 111.68,30.18 196.21,45.28 253.57,45.28 46.29,0 87.77,-8.3 124.51,-24.92 36.71,-16.6 55.1,-45.01 55.1,-85.27 0,-33.22 -15.61,-58.85 -46.8,-76.97 -31.19,-18.12 -79.99,-36.23 -146.39,-54.35 -38.26,-10.06 -67.15,-18.35 -86.79,-24.89 -19.61,-6.54 -43.01,-16.09 -70.2,-28.68 -27.16,-12.57 -47.51,-25.67 -61.12,-39.25 -13.58,-13.58 -25.4,-31.69 -35.46,-54.32 -10.06,-22.65 -15.1,-48.05 -15.1,-76.22 0,-62.38 23.13,-113.2 69.42,-152.45 46.29,-39.22 123.77,-58.85 232.44,-58.85 95.59,0 182.65,17.6 261.11,52.82l-42.26 113.2c-67.42,-27.15 -140.36,-41.75 -218.85,-43.78l-6.03 0c-109.68,0 -164.51,29.7 -164.51,89.06 0,25.16 15.85,45.78 47.54,61.87 31.7,16.12 70.17,29.7 115.45,40.77 45.3,11.07 90.58,24.38 135.85,39.99 45.28,15.58 83.78,41.25 115.47,76.97 31.67,35.73 47.55,80.76 47.55,135.08 0,40.26 -6.81,74.97 -20.39,104.13 -13.58,29.19 -30.44,51.84 -50.56,67.93 -20.11,16.11 -45.27,28.68 -75.48,37.75 -30.17,9.05 -57.36,14.84 -81.5,17.34 -24.15,2.51 -51.81,3.76 -83,3.76 -80.5,0 -176.6,-15.58 -288.28,-46.76z"/>
   <path class="fil1" d="M10164.97 1258.73l691.63 0 0 -62.87c0,-105.68 -31.46,-194.11 -94.32,-265.19 -62.87,-71.03 -147.19,-106.6 -252.87,-106.6 -102.06,0 -182.22,34.65 -240.55,103.89 -58.32,69.25 -92.97,158.55 -103.89,267.9l0 62.87zm806.39 464.71l90.22 191.35c-185.84,87.46 -363.52,131.19 -533.04,131.19 -193.13,0 -341.68,-50.97 -445.57,-153.03 -103.89,-102.11 -155.84,-245.14 -155.84,-429.19l0 -224.17c0,-184.06 51.03,-336.22 153.14,-456.49 102,-120.33 245.08,-180.44 429.14,-180.44 184.05,0 327.14,60.11 429.19,180.44 102.06,120.27 153.09,272.43 153.09,456.49l0 210.49 -926.72 0c0,258.76 120.27,388.17 360.87,388.17 138.49,0 286.98,-38.27 445.52,-114.81zm-1514.18 13.67l0 -344.44c-123.95,-18.21 -226.01,-27.35 -306.17,-27.35 -118.43,0 -207.3,15.95 -266.54,47.84 -59.25,31.89 -88.87,99.79 -88.87,203.68 0,140.33 81.14,210.49 243.3,210.49 164,0 303.46,-30.11 418.28,-90.22zm235.08 90.22l40.97 180.43 -246 0 -13.67 -57.4c-138.49,63.78 -295.2,95.62 -470.17,95.62 -89.3,0 -164.92,-13.19 -226.93,-39.62 -61.94,-26.43 -107.51,-62.38 -136.65,-107.95 -29.19,-45.57 -49.67,-91.14 -61.51,-136.7 -11.84,-45.57 -17.78,-93.84 -17.78,-144.87 0,-98.43 14.16,-179.03 42.37,-241.95 28.27,-62.87 72.44,-108.87 132.6,-138 60.11,-29.19 120.76,-48.33 181.79,-57.46 61.03,-9.08 139.84,-13.62 236.43,-13.62 94.76,0 195.95,8.16 303.47,24.59l0 -106.6c0,-180.43 -97.52,-270.65 -292.49,-270.65 -52.87,0 -123.47,8.65 -211.9,25.95 -88.38,17.35 -166.27,41.51 -233.68,72.43 -38.27,-102 -62,-166.7 -71.08,-194.05 83.84,-34.6 175.35,-62.44 274.71,-83.36 99.35,-20.97 179.03,-31.46 239.19,-31.46 353.52,0 530.33,165.84 530.33,497.52l0 727.15zm-1495.1 -1730.4l237.79 0 0 1910.83 -237.79 0 0 -1910.83zm-1254.56 1864.35c12.76,-49.19 33.73,-121.19 62.87,-215.95 202.27,54.65 355.41,82 459.25,82 83.83,0 159.03,-15.03 225.51,-45.14 66.54,-30.05 99.79,-81.51 99.79,-154.43 0,-60.16 -28.22,-106.6 -84.76,-139.41 -56.49,-32.81 -144.87,-65.62 -265.14,-98.43 -69.24,-18.22 -121.62,-33.25 -157.19,-45.08 -35.51,-11.84 -77.89,-29.14 -127.14,-51.95 -49.19,-22.76 -86.05,-46.49 -110.7,-71.08 -24.6,-24.6 -46,-57.41 -64.22,-98.38 -18.22,-41.03 -27.3,-87.03 -27.3,-138.06 0,-112.97 41.9,-205.03 125.73,-276.11 83.79,-71.03 224.12,-106.6 420.98,-106.6 173.09,0 330.77,31.9 472.88,95.68l-76.55 205.03c-122.05,-49.19 -254.22,-75.62 -396.33,-79.3l-10.97 0c-198.65,0 -297.95,53.79 -297.95,161.3 0,45.57 28.7,82.92 86.11,112.06 57.41,29.19 127.08,53.78 209.14,73.84 82,20.05 164,44.16 246,72.43 82,28.22 151.73,74.7 209.14,139.41 57.41,64.7 86.11,146.27 86.11,244.65 0,72.92 -12.33,135.78 -36.92,188.6 -24.6,52.86 -55.14,93.89 -91.57,123.02 -36.43,29.19 -82,51.95 -136.7,68.38 -54.65,16.38 -103.84,26.87 -147.63,31.41 -43.73,4.54 -93.84,6.81 -150.32,6.81 -145.79,0 -319.85,-28.22 -522.12,-84.7zm-1273.69 478.38l60.16 -199.57c51.03,14.6 87.46,21.89 109.35,21.89 45.57,0 88.38,-28.27 128.49,-84.75 47.35,-58.33 102.92,-162.22 166.71,-311.63 -45.57,-105.73 -140.28,-315.3 -284.28,-628.71 -143.95,-313.47 -234.16,-512.12 -270.65,-595.96l251.52 0 423.68 945.8c56.54,-127.51 180.43,-442.82 371.79,-945.8l251.51 0c-368.16,969.53 -610.55,1529 -727.14,1678.46 -80.22,105.68 -172.22,158.54 -276.11,158.54 -56.49,0 -124.82,-12.75 -205.03,-38.27zm-1331.05 -502.98l68.33 -218.7c216.86,65.62 397.3,98.38 541.25,98.38 45.56,0 82.92,-0.87 112.11,-2.71 29.13,-1.83 64.21,-8.65 105.19,-20.48 41.02,-11.84 73.84,-28.71 98.43,-50.6 24.6,-21.84 46,-53.73 64.27,-95.68 18.16,-41.89 27.3,-92.05 27.3,-150.32 0,-45.57 -9.57,-87.03 -28.7,-124.38 -19.14,-37.35 -39.19,-66.98 -60.17,-88.87 -20.92,-21.84 -55.56,-44.65 -103.84,-68.32 -48.32,-23.68 -85.19,-40.55 -110.7,-50.6 -25.51,-10 -68.38,-25.03 -128.49,-45.08 -83.84,-29.14 -152.16,-55.14 -205.03,-77.89 -52.81,-22.82 -110.7,-55.57 -173.57,-98.44 -62.86,-42.81 -109.84,-95.19 -140.76,-157.19 -31.02,-61.95 -46.48,-133.95 -46.48,-215.95 0,-346.27 212.27,-519.36 636.92,-519.36 207.74,0 382.71,51.95 524.82,155.79l-128.49 199.57c-129.35,-80.16 -261.51,-120.27 -396.33,-120.27 -262.43,0 -393.62,94.76 -393.62,284.27 0,38.27 8.16,72.92 24.59,103.89 16.38,30.98 35.08,56.49 56,76.55 20.98,20.05 51.52,40.11 91.57,60.11 40.11,20.05 74.27,35.56 102.54,46.48 28.22,10.98 67.9,24.6 118.92,41.03 60.11,21.84 105.25,37.78 135.3,47.84 30.06,10 70.6,26.43 121.63,49.19 51.02,22.81 89.78,43.3 116.21,61.51 26.44,18.22 57.41,42.81 92.92,73.79 35.52,31.03 61.52,62.86 77.9,95.67 16.43,32.82 31.02,72.44 43.73,118.93 12.75,46.48 19.13,97.02 19.13,151.73 0,85.62 -9.08,161.24 -27.29,226.87 -18.22,65.62 -45.57,118 -82.01,157.19 -36.48,39.19 -73.35,71.08 -110.7,95.67 -37.41,24.6 -84.76,41.9 -142.16,51.95 -57.41,10 -105.74,16.38 -144.87,19.14 -39.19,2.7 -87.95,4.1 -146.27,4.1 -184.06,0 -387.25,-38.27 -609.58,-114.81z"/>
  </g>
 </g>
</svg>
